<svg id="Layer_1" data-name="Layer 1" xmlns="http://www.w3.org/2000/svg" viewBox="0 0 498.16 500"><path d="M499.08,465.82C499.08,484.7,387.57,500,250,500S.92,484.7.92,465.82c0-13,53.08-24.32,131.2-30.08v21.95c-17.05.68-30,4.05-30,8.13,0,4.56,16.25,8.26,36.31,8.26s36.31-3.7,36.31-8.26c0-4.08-12.92-7.45-30-8.13V434.86c32-2.05,67.62-3.19,105.22-3.19C387.57,431.67,499.08,447,499.08,465.82Z" transform="translate(-0.92)"/><path d="M144.79,0V435c-4.28.24-8.52.48-12.67.76V0Z" transform="translate(-0.92)"/><polygon points="153.48 0 153.48 168.97 437.36 84.48 153.48 0"/></svg>